<svg width="240" height="240" viewBox="0 0 240 240" fill="none" xmlns="http://www.w3.org/2000/svg">
<g id="Iconly/Light-Outline/Arrow - Left">
<g id="Arrow - Left">
<path id="Stroke 1" d="M200 122.743C200 126.54 197.178 129.678 193.518 130.174L192.5 130.243L42.5 130.243C38.3579 130.243 35 126.885 35 122.743C35 118.946 37.8215 115.808 41.4823 115.311L42.5 115.243L192.5 115.243C196.642 115.243 200 118.601 200 122.743Z" fill="#212121"/>
<path id="Stroke 3" d="M108.29 177.672C111.225 180.595 111.235 185.344 108.313 188.279C105.656 190.947 101.49 191.198 98.5489 189.026L97.7062 188.302L37.2062 128.062C34.5298 125.397 34.2863 121.216 36.4759 118.275L37.2057 117.433L97.7057 57.1827C100.641 54.2598 105.389 54.2696 108.312 57.2046C110.969 59.8728 111.203 64.0399 109.018 66.9715L108.29 67.8112L53.13 122.75L108.29 177.672Z" fill="#212121"/>
</g>
</g>
</svg>
